<?xml version="1.0" standalone="no"?>
<!DOCTYPE svg PUBLIC "-//W3C//DTD SVG 20010904//EN"
 "http://www.w3.org/TR/2001/REC-SVG-20010904/DTD/svg10.dtd">
<svg version="1.0" xmlns="http://www.w3.org/2000/svg"
 width="197.000000pt" height="197.000000pt" viewBox="0 0 197.000000 197.000000"
 preserveAspectRatio="xMidYMid meet">
<metadata>
Created by potrace 1.14, written by Peter Selinger 2001-2017
</metadata>
<g transform="translate(0.000000,197.000000) scale(0.100000,-0.100000)"
fill="#000000" stroke="none">
<path d="M882 1746 c-235 -236 -265 -277 -275 -373 -7 -70 12 -149 50 -206 29
-43 32 -53 20 -62 -8 -5 -69 -61 -135 -124 -66 -62 -129 -119 -138 -125 -11
-8 -13 -15 -7 -19 12 -7 592 -11 599 -4 5 5 -83 92 -239 235 -26 23 -47 46
-47 51 0 5 98 107 218 227 159 160 225 233 242 269 49 100 34 244 -32 317
l-33 37 -223 -223z"/>
<path d="M964 1128 c-3 -4 26 -36 63 -71 38 -35 103 -98 147 -139 l78 -74
-222 -222 c-241 -243 -259 -267 -268 -378 -6 -74 15 -149 58 -208 l29 -38 224
224 c123 123 232 239 242 258 57 109 49 250 -19 334 l-23 30 70 65 c39 37 107
101 151 143 l81 78 -55 0 c-374 4 -553 4 -556 -2z"/>
</g>
</svg>
