<svg width="40" height="40" viewBox="0 0 40 40" fill="none" xmlns="http://www.w3.org/2000/svg">
<g clip-path="url(#clip0_711_14)">
<path d="M27.5 10C29.0305 9.99979 30.4998 10.6011 31.591 11.6742C32.6822 12.7474 33.308 14.2064 33.3333 15.7367C33.4833 17.1783 33.4617 19.305 32.4867 21.76C31.49 24.27 29.5467 27.0067 26 29.6667C25.8249 29.798 25.6257 29.8935 25.4136 29.9479C25.2016 30.0022 24.981 30.0142 24.7643 29.9833C24.3267 29.9207 23.9319 29.687 23.6667 29.3333C23.4015 28.9797 23.2876 28.5352 23.3501 28.0976C23.4126 27.66 23.6464 27.2652 24 27C26.6067 25.045 28.1 23.145 28.955 21.4833C28.1534 21.6892 27.3172 21.7221 26.5019 21.5799C25.6866 21.4377 24.9108 21.1237 24.2262 20.6587C23.5416 20.1936 22.9638 19.5882 22.5312 18.8827C22.0986 18.1771 21.821 17.3876 21.717 16.5666C21.613 15.7455 21.6848 14.9117 21.9278 14.1206C22.1708 13.3295 22.5794 12.5991 23.1264 11.978C23.6733 11.3569 24.3462 10.8593 25.1003 10.5183C25.8544 10.1772 26.6724 10.0006 27.5 10V10ZM12.5 10C14.0305 9.99979 15.4998 10.6011 16.591 11.6742C17.6822 12.7474 18.308 14.2064 18.3333 15.7367C18.4833 17.1783 18.4617 19.305 17.4867 21.76C16.4917 24.27 14.5467 27.0067 11 29.6667C10.8249 29.798 10.6257 29.8935 10.4136 29.9479C10.2016 30.0022 9.98097 30.0142 9.7643 29.9833C9.32671 29.9207 8.93188 29.687 8.66667 29.3333C8.40145 28.9797 8.28757 28.5352 8.35009 28.0976C8.4126 27.66 8.64638 27.2652 9 27C11.6067 25.045 13.1 23.145 13.955 21.4833C13.1534 21.6892 12.3172 21.7221 11.5019 21.5799C10.6866 21.4377 9.91083 21.1237 9.22623 20.6587C8.54163 20.1936 7.96383 19.5882 7.5312 18.8827C7.09857 18.1771 6.82102 17.3876 6.71698 16.5666C6.61295 15.7455 6.68482 14.9117 6.92782 14.1206C7.17081 13.3295 7.57937 12.5991 8.12635 11.978C8.67333 11.3569 9.34621 10.8593 10.1003 10.5183C10.8544 10.1772 11.6724 10.0006 12.5 10V10Z" fill="black"/>
</g>
<defs>
<clipPath id="clip0_711_14">
<rect width="40" height="40" fill="white"/>
</clipPath>
</defs>
</svg>
